<mxfile host="app.diagrams.net" modified="2023-12-08T09:16:40.643Z" agent="Mozilla/5.0 (Windows NT 10.0; Win64; x64) AppleWebKit/537.36 (KHTML, like Gecko) Chrome/119.0.0.0 Safari/537.36" etag="ZgyL0gxwT9HFz1D0iWbn" version="22.1.7" type="github">
  <diagram name="第 1 页" id="gfgi9TSkEX0CwsbFpthC">
    <mxGraphModel dx="1434" dy="790" grid="1" gridSize="10" guides="1" tooltips="1" connect="1" arrows="1" fold="1" page="1" pageScale="1" pageWidth="827" pageHeight="1169" math="0" shadow="0">
      <root>
        <mxCell id="0" />
        <mxCell id="1" parent="0" />
        <mxCell id="1j2sxOa3S18asPntkXee-2" value="" style="edgeStyle=orthogonalEdgeStyle;rounded=0;orthogonalLoop=1;jettySize=auto;html=1;" parent="1" source="enClKm4gNjST4oWeLO2i-1" target="1j2sxOa3S18asPntkXee-1" edge="1">
          <mxGeometry relative="1" as="geometry" />
        </mxCell>
        <mxCell id="enClKm4gNjST4oWeLO2i-1" value="工作" style="rounded=0;whiteSpace=wrap;html=1;" parent="1" vertex="1">
          <mxGeometry x="230" y="180" width="120" height="60" as="geometry" />
        </mxCell>
        <mxCell id="3eNmZVjhTHned3K8O2uX-2" value="" style="edgeStyle=orthogonalEdgeStyle;rounded=0;orthogonalLoop=1;jettySize=auto;html=1;" parent="1" source="1j2sxOa3S18asPntkXee-1" target="3eNmZVjhTHned3K8O2uX-1" edge="1">
          <mxGeometry relative="1" as="geometry" />
        </mxCell>
        <mxCell id="1j2sxOa3S18asPntkXee-1" value="c" style="rounded=0;whiteSpace=wrap;html=1;" parent="1" vertex="1">
          <mxGeometry x="230" y="320" width="120" height="60" as="geometry" />
        </mxCell>
        <mxCell id="3eNmZVjhTHned3K8O2uX-1" value="工作状态" style="rounded=0;whiteSpace=wrap;html=1;" parent="1" vertex="1">
          <mxGeometry x="230" y="460" width="120" height="60" as="geometry" />
        </mxCell>
        <mxCell id="nU2GDoyYvWuLEufp8ZSS-1" value="" style="shape=image;verticalLabelPosition=bottom;labelBackgroundColor=default;verticalAlign=top;aspect=fixed;imageAspect=0;image=data:image/png,iVBORw0KGgoAAAANSUhEUgAAAPAAAAC3CAYAAAAsCNNGAAAQOklEQVR4Ae2dUa7buBJE7xoDzIaCbCVZSrIJ/w0wmR3kIx9+aCVlUlJfqZzxg1rUMWA0TbUk6lQXKedqPG/3369///1XzXfjz58/7/Hee706L87H+NbUXc7wW7OLnhH4venSMIhItDiCwLoa9BWJFkfQFwM3PVetEQTWRWFgkWhxBH0xcNNz1RpBYF0UBhaJFkfQFwM3PVetEQTWRWFgkWhxBH0xcNNz1RpBYF0UBhaJFkfQ9y2EjfftdpuiPmfxn3/+ucc729b3vTovjs34fun0J5zht2YXTNw6rcyPFbhNyKvWCDO0LiqKcO/lXu+r82JcjG+tjsMZA6+5PXocgEqmAEWiRfg1Fn3L5eLkYeCe7KLtANQuGFgkWoRfY9G3XC5OHgbuyS7aDkDtgoFFokX4NRZ9y+Xi5GHgnuyi7QDULhhYJFqEX2PRt1wuTh4G7sku2g5A7YKBRaJF+DUWfcvl4uRh4J7sou0A1C4YWCRahF9j0bdcLk4eBu7JLtoOQO2CgUWiRfg1Fn3L5eLkvSkp/qit9nvxx48f93i/t139r86L4zK+X/8ppxhHdDnDb81uFH4Y+Pd/49wbQ20M8t8KH37/f37cQvf3Nou2jLzoTj9yC73GAr81k+hxuTh5GDhnPPU6ALU7BhaJFuHXWPQtl4uTh4F7sou2A1C7YGCRaBF+jUXfcrk4eRi4J7toOwC1CwYWiRbh11j0LZeLk4eBe7KLtgNQu2BgkWgRfo1F33K5OHkYuCe7aDsAtQsGFokW4ddY9C2Xi5OHgXuyi7YDULtgYJFoEX6NRd9yuTh5GLgnu2g7ALULBhaJFuHXWPQtl4uTx4McPMjx+Luk++DFq/OiUHnSbv3Qh8MZA2NgDLxRA1oFq04w3EL39zaLtsRbdKcfuYVeY4Hfmkn0uFycPAycM556HYDaHQOLRIvwayz6lsvFycPAPdlF2wGoXTCwSLQIv8aib7lcnDwM3JNdtB2A2gUDi0SL8Gss+pbLxcnDwD3ZRdsBqF0wsEi0CL/Gom+5XJw8DNyTXbQdgNoFA4tEi/BrLPqWy8XJw8A92UXbAahdMLBItAi/xqJvuVycPAzck120HYDaBQOLRIvwayz6lsvFyeNBjo0/4jtPwghy1T/0M771E05iMoK+GBgDPx4scAv61XlhKCbA9UTjcOYWur+3WbQ1Uy+604/cQq+xwG/NJHpcLk4eBs4ZT70OQO2OgUWiRfg1Fn3L5eLkYeCe7KLtANQuGFgkWoRfY9G3XC5OHgbuyS7aDkDtgoFFokX4NRZ9y+Xi5GHgnuyi7QDULhhYJFqEX2PRt1wuTh4G7sku2g5A7YKBRaJF+DUWfcvl4uRh4J7sou0A1C4YWCRahF9j0bdcLk4eBu7JLtoOQO2CgUWiRfg1Fn3L5eLkYeCe7KLtANQuGFgkWoRfY9G3XC5O3lsUXrxvt9sU9TmL8bRMvLNtfd+r8+LYjO+XTn/CGX5rdsHErdPK/FiB+6lx0XZmQO0SIu+93OO9Oi/GxfjW6ricK/PDwGtdHz0jCKyLwcAi0eII+mLgpueqNYLAuigMLBItjqAvBm56rlojCKyLwsAi0eII+mLgpueqNYLAuigMLBItjqAvBm56rlojCKyLwsAi0eII+mLgpueqNYLAuigMLBItjqAvBm56rlojCKyLwsAi0eII+vKTOvykzuMXIpyfcImif3VeHDMeqpCh3ouvPq97vMrjw8AY+GEct6BfnVfZIJpMqk4w3EK3O6pVS+KtNiQd3KKuocBvzSR6XC5OHgbOGU+9DkDtjoFFokX4NRZ9y+Xi5GHgnuyi7QDULhhYJFqEX2PRt1wuTh4G7sku2g5A7YKBRaJF+DUWfcvl4uRh4J7sou0A1C4YWCRahF9j0bdcLk4eBu7JLtoOQO2CgUWiRfg1Fn3L5eLkYeCe7KLtANQuGFgkWoRfY9G3XC5OHgbuyS7aDkDtgoFFokX4NRZ9y+Xi5PEgBw9yPP4u+eoHNNzjRaFWfVBCJqo6Pgy8Y+C3t7c777EZyKRbsayBtbRzCygSLYagYV5e4xJw9a3qj0d1Vh2gSueo8bkCa5zEcxFw9T2q/mIR2Xph4A06rMAbcAbZhIETIfVdItk063LzYqejZkBX4NmF8eE0BFx9j6o/VuCklNyJI/JcgZPT0HUCAq6+GDgR0zVS7HoUQFfg5PLoOgEBV9+j6o8VOCkid+JgBU7gDdaFgRNBnzHI3gyjwx81A7oCa5zEcxFw9T2q/vb8wYMcxoMc5ypJRvsMgTCwFpytWPZBDg266gCPHp87Qz9TNOTWIXB6Awtl1VuEo8eHgaXAmNHVt6o/eJBjoy5j9XcF3jgMmwoTcPXFwImIuj1ONq26jgLoCrwaMB2nIODqe1T9hUe2XqzAG3RYgTfgDLIJAydCuiurmxenOGoGdAVOMNB1AgKuvkfVHytwUkTuxBF5rsDJaeg6AQFXXwyciOkaKXY9CqArcHJ5dJ2AgKvvUfXHCpwUkTtxsAIn8AbrwsCJoM8YZG+G0eGPmgFdgTVO4rkIuPoeVX97/niLgcX7drtNUZ+zGE9rxTvb1ve9Oi+OfdT4XIHPVbaMVgRC375232sfVX97fuPPSFIyidxCJ1AG63In6DD23uvVd57O8TDwhioYeAPOIJswcCKkM3PEbm5e5B41A7oCJxjoOgEBV9+j6i88svViBd6gM8YK/PX+yfpt60/3rz2Lb5/uH758n3q+f/nwaPcpI7QxcKKiu7K6eXGKo2ZAV+AEQ9kux5BfP364f/47LuH7/fNfape9pD8emKvvUfXHCpxI604ckecKnJymbNeugf/+fP/w1+f7tP5++zQxCA6rt3LKXun+wFx9MXDC0jVS7HoUQFfg5PLKdu0ZOLa/fYwb6l+335++3e/37pa67IX9wcBcfY+qP1bgRFR34rjmCvz7O/PHr/eZ0TFwUknzrmfqas+YcWTnePwm1gV/E2tmzHkNTqb99OXz/cO0Ancbk1vpaWXuUs7YjBVYRtmK8UDF1vbY5v7fGF+Zh4Ex8Mx3X798vn+P78CJgfWv0rMdTv7h9AYW/6r3+EePz/2OpHGeIW6twNP4L2ZgR7Oq/uDvwBvqxW0RBv4NKLmFHmFFdvXFwIlR9J0i2bTqOgqgK/BqwIU7WIGbOK6+R9VfeGTrxQq8QWeEFfjrx+Tvt9nfdKNP33u5hV5VBQZeIfH+mVy7HQXQnaE1TuK5CLj6HlV/rMBJPbm37iOswMnl09URwMAdDDWfMcjeDKNjHjUDugJrnMRzEXD1Par+9vzBd+CNemMF3oAzyKbTG1irZdUnTY4enyvwIPV8ucsIfVVjW7GqP3gS64JPYl3OpRsXfHoD69qq3uMfPT5WYCkwZnT1reoPvgNv1GXcUrkCbxyGTYUJuPpi4EREfedINq26jgLoCrwaMB2nIODqe1T9hUe2XqzAG3RYgTfgDLIJAydCuiurmxenOGoGdAVOMNB1AgKuvkfVHytwUkTuxBF5rsDJaeg6AQFXXwyciOkaKXY9CqArcHJ5dJ2AgKvvUfXHCpwUkTtxsAIn8AbrOr2BVcxVnzQ5enyuwIPV9WUuJ/RVjW3Fqv7gSSyexLqMWbMLPb2BdVFV7/GPHh8rsBQYM7r6VvUHfwfeqMu4pXIF3jgMmwoTcPXFwImI+s6RbFp1HQXQFXg1YDpOQcDV96j6C49svViBN+iwAm/AGWQTBk6EdFdWNy9OcdQM6AqcYKDrBARcfY+qP1bgpIjciSPyXIGT09B1AgKuvhg4EdM1Uux6FEBX4OTy6DoBAVffo+qPFTgpInfiYAVO4A3WhYETQZ8xyN4Mo8MfNQO6AmucxHMRcPU9qv72/PEWA4v37Xaboj5nMR4ni3e2re97dV4c+6jxhcC8x2bQ1+577aPqb89v/BlpY8Fw7yTiECH83ss93qvznhmfsyIdOb44997rSuPDwBvV4BbCMwapXoAYOC+IqhM0Bs71mnoxcA7H5eLmxVmqGkQEqo4PA0uhJF6xAFmBk0IoPMFg4FyvqRcD53BcLm5enKXqCicCVceHgaVQEq9YgKzASSEUnmAwcK7X1IuBczguFzcvzlJ1hROBquPDwFIoiVcsQFbgpBAKTzD8pM7OT+r8+PHj1L+ZpEkoHghQ+70Y1xoGfm+7+iPP4eLmxXHd8b3yvCOMDwNj4Idho6Ax8M8HD01YlScYbqHzO6apVwJupDw2Vf2OpAG64+MWWsTm0eUXNbP3cuvKycPAG7QdgNq9qsDPjg8Di9g8VtUXA891mn3CwDMcjw8uFzcvDlzVILroquPDwFIoiVcsQFbgpBAKTzAYONdr6sXAORyXi5sXZ6m6wolA1fFhYCmUxCsWICtwUgiFJxgMnOs19WLgHI7Lxc2Ls1Rd4USg6vgwsBRK4hULkBU4KYTCEwwPcvAgx+PBBR7kyB/iiIm86pNiGBgDY+CNGtBdWFkD64ah6j0+4xOBdVRxrbese1x9uYVes4sel19osvdydXPy+A68QdsBqN2rCvzs+DCwiM1jVX0x8Fyn2ScMPMPx+OBycfPiwFUNoouuOj4MLIWSeMUCZAVOCqHwBIOBc72mXgycw3G5uHlxlqornAhUHR8GlkJJvGIBsgInhVB4gsHAuV5TLwbO4bhc3Lw4S9UVTgSqjg8DS6EkXrEAWYGTQig8wfAgx8Yf8Uf4zSRNQu6DCGFg7fNedLm4eXEed3xxzPfGpX73vG5e5fFhYAz8MEQUNAbOH6esOsFwC53fMU29mtE3Uh6bqn5H0gDd8XELLWLz6PKLmtl7uXXl5GHgDdoOQO1eVeBnx4eBRWweq+qLgec6zT5h4BmOxweXi5sXB65qEF101fFhYCmUxCsWICtwUgiFJxgMnOs19WLgHI7Lxc2Ls1Rd4USg6vgwsBRK4hULkBU4KYTCEwwGzvWaejFwDsfl4ubFWaqucCJQdXwYWAol8YoFyAqcFELhCQYD53pNvRg4h+NycfPiLFVXOBGoOr63GFi8b7fbFPU5i/E0SryzbX3fq/Pi2Izvl05/wvkZfrEC9+fI2ui71iI4vZqLczxWYE2xSbziCsItdFIIhe8QMHCu19SLgXM4Lhc3L84SK9jeyz3eq/Mqjw8Db1SNWwiVBdbluQZhBRaxeXT5Rc3svdy6cvIw8AZtB6B2ryrws+PDwCI2j1X1xcBznWafMPAMx+ODy8XNiwNXNYguuur4MLAUSuIVC5AVOCmEwhMMBs71mnoxcA7H5eLmxVmqrnAiUHV8GFgKJfGKBcgKnBRC4QmGn9ThJ3X4SZ2NGtAkHg9VqP1edH9j65V5GHhDPBd0CFpVYBWbO75YgbXPe9Hl4uaNxC+u+T1u6ne5OHncQud3TFOvgG+kPDZV/Y6kAbrj4xZaxObR5Rc1s/dy68rJw8AbtB2A2r2qwM+ODwOL2DxW1RcDz3WafcLAMxyPDy4XNy8OXNUguuiq48PAUiiJVyxAVuCkEApPMBg412vqxcA5HJeLmxdnqbrCiUDV8WFgKZTEKxYgK3BSCIUnmP8BTwhPZ4UDdy0AAAAASUVORK5CYII=;" vertex="1" parent="1">
          <mxGeometry x="460" y="260" width="240" height="183" as="geometry" />
        </mxCell>
      </root>
    </mxGraphModel>
  </diagram>
</mxfile>
